<svg xmlns="http://www.w3.org/2000/svg" version="1.1" xml:space="preserve" height="64" viewBox="0 0 64 64" width="64" enable-background="new 0 0 56.693 56.693">	<path id="path4060" d="m57.841,15.972c-1.8999,0.84453-3.9446,1.4142-6.0901,1.6691,2.1905-1.3114,3.8702-3.3886,4.6622-5.8666-2.0489,1.2159-4.3171,2.0982-6.7332,2.5745-1.933-2.06-4.689-3.348-7.739-3.348-5.855,0-10.602,4.747-10.602,10.603,0,0.82984,0.09337,1.6387,0.27487,2.4161-8.813-0.442-16.627-4.663-21.857-11.078-0.91272,1.5653-1.4352,3.3865-1.4352,5.3316,0,3.6782,1.8716,6.9241,4.7168,8.8251-1.7373-0.0556-3.3729-0.53295-4.8028-1.3271-0.00105,0.04406-0.00105,0.08917-0.00105,0.13428,0,5.1364,3.6551,9.421,8.5062,10.397-0.88964,0.2413-1.8265,0.37138-2.7938,0.37138-0.68402,0-1.3481-0.06609-1.9954-0.19094,1.3502,4.2122,5.2655,7.2787,9.9046,7.3637-3.6289,2.8441-8.1998,4.5395-13.168,4.5395-0.85502,0-1.6996-0.05036-2.5294-0.14897,4.6937,3.0099,10.267,4.764,16.254,4.764,19.504,0,30.168-16.156,30.168-30.168,0-0.45951-0.0094-0.91797-0.02937-1.3733,2.0709-1.4918,3.8691-3.3603,5.2896-5.4868z"/></svg>
