<svg xmlns="http://www.w3.org/2000/svg" xml:space="preserve" height="64" viewBox="0 0 64 64" width="64" version="1.1">	<path id="path4042" d="m39.711,28.719c0.219,1.1701,0.33862,2.3952,0.33862,3.6748-0.001,9.997-6.694,17.106-16.8,17.106-9.669,0-17.5-7.831-17.5-17.5,0-9.6686,7.8314-17.5,17.5-17.5,4.7254,0,8.6731,1.7389,11.703,4.5609l-4.933,4.933v-0.0113c-1.837-1.7497-4.167-2.6467-6.77-2.6467-5.7748,0-10.467,4.878-10.467,10.653,0,5.7742,4.6922,10.664,10.467,10.664,5.2391,0,8.8045-2.9971,9.5384-7.1094h-9.538v-6.8252h16.461zm13.07,1.0938v-5.4688h-4.375v5.4685h-5.4685v4.375h5.4688v5.4688h4.375v-5.4695h5.469v-4.375h-5.4688z"/></svg>
